<?xml version="1.0" encoding="UTF-8" standalone="no"?>
<!-- Created with Inkscape (http://www.inkscape.org/) -->

<svg
   xmlns:dc="http://purl.org/dc/elements/1.1/"
   xmlns:cc="http://creativecommons.org/ns#"
   xmlns:rdf="http://www.w3.org/1999/02/22-rdf-syntax-ns#"
   xmlns:svg="http://www.w3.org/2000/svg"
   xmlns="http://www.w3.org/2000/svg"
   xmlns:sodipodi="http://sodipodi.sourceforge.net/DTD/sodipodi-0.dtd"
   xmlns:inkscape="http://www.inkscape.org/namespaces/inkscape"
   width="360"
   height="360"
   viewBox="0 0 360 360"
   id="svg2"
   version="1.1"
   inkscape:version="0.91 r13725"
   sodipodi:docname="logo-360x360.svg"
   inkscape:export-filename="/Users/chadknight/workspaces/crgk/chadandszuyin.us/assets/img/logo-32x32.png"
   inkscape:export-xdpi="8"
   inkscape:export-ydpi="8">
  <defs
     id="defs4" />
  <sodipodi:namedview
     id="base"
     pagecolor="#ffffff"
     bordercolor="#666666"
     borderopacity="1.0"
     inkscape:pageopacity="0.0"
     inkscape:pageshadow="2"
     inkscape:zoom="2.5837486"
     inkscape:cx="146.57575"
     inkscape:cy="161.58205"
     inkscape:document-units="px"
     inkscape:current-layer="layer4"
     showgrid="true"
     inkscape:window-width="1916"
     inkscape:window-height="1155"
     inkscape:window-x="0"
     inkscape:window-y="1"
     inkscape:window-maximized="1"
     units="px"
     fit-margin-top="0"
     fit-margin-left="0"
     fit-margin-right="0"
     fit-margin-bottom="0"
     borderlayer="false"
     inkscape:showpageshadow="false">
    <inkscape:grid
       type="xygrid"
       id="grid4544" />
  </sodipodi:namedview>
  <metadata
     id="metadata7">
    <rdf:RDF>
      <cc:Work
         rdf:about="">
        <dc:format>image/svg+xml</dc:format>
        <dc:type
           rdf:resource="http://purl.org/dc/dcmitype/StillImage" />
        <dc:title></dc:title>
      </cc:Work>
    </rdf:RDF>
  </metadata>
  <g
     inkscape:label="Layer 1"
     inkscape:groupmode="layer"
     id="layer1"
     style="display:inline"
     transform="translate(-86.571442,-187.77756)" />
  <g
     inkscape:groupmode="layer"
     id="layer4"
     inkscape:label="Moon"
     style="display:inline"
     transform="translate(-86.571442,-187.77756)">
    <path
       style="display:inline;fill:#000000;fill-opacity:1;fill-rule:evenodd;stroke:#000000;stroke-width:1px;stroke-linecap:butt;stroke-linejoin:miter;stroke-opacity:1"
       d="M 176.80469,38.439453 A 135.71428,135.71428 0 0 0 41.089844,174.1543 135.71428,135.71428 0 0 0 150.91602,307.32422 118.18395,146.16689 0 0 1 114.79102,202.35352 118.18395,146.16689 0 0 1 232.97461,56.1875 118.18395,146.16689 0 0 1 244.9707,56.955078 135.71428,135.71428 0 0 0 176.80469,38.439453 Z"
       transform="translate(86.571442,187.77756)"
       id="path3340"
       inkscape:connector-curvature="0" />
  </g>
  <g
     inkscape:groupmode="layer"
     id="layer3"
     inkscape:label="Circle"
     style="display:inline"
     transform="translate(-86.571442,-187.77756)">
    <g
       inkscape:groupmode="layer"
       id="layer5"
       inkscape:label="Grass"
       style="display:inline">
      <path
         style="fill:#000000;fill-opacity:1;stroke:none;stroke-width:4;stroke-miterlimit:4;stroke-dasharray:none"
         id="path4342"
         d="m 340.21948,471.48822 c 0.0624,-1.57728 0.14599,-3.63101 0.18687,-5.08775 0.16128,-5.74721 0.009,-5.98408 0.67699,-12.454 0.87095,-8.43677 1.61401,-12.22331 2.99594,-20.83338 3.67767,-18.43653 8.02551,-36.77196 13.60537,-54.7339 3.70457,-11.92521 5.07542,-15.13651 9.3665,-26.6636 4.42863,-11.73338 9.77873,-23.07413 15.36126,-34.29139 0,0 4.12497,-1.85943 4.12497,-1.85943 l 0,0 c -1.05885,1.97329 -2.14416,3.93261 -3.17657,5.91986 -4.87406,9.38192 -9.34348,18.97118 -13.23964,28.80347 -1.63457,4.29487 -3.36304,8.55516 -4.90372,12.88459 -3.43894,9.66371 -5.94824,17.9336 -8.64965,27.82772 -2.39735,8.78051 -4.81271,18.69771 -6.66768,27.62166 -0.88541,4.25958 -1.61683,8.54972 -2.42524,12.82457 -0.52269,3.68742 -1.12621,7.36429 -1.56805,11.06227 -0.73295,6.13453 -1.06272,10.63745 -1.12401,16.6703 -0.0167,1.64428 0.0695,3.28804 0.117,4.93172 0.0409,1.4142 0.12403,3.37273 0.18686,4.89732 0,0 -4.8672,2.47997 -4.8672,2.47997 z"
         inkscape:connector-curvature="0" />
      <g
         id="g4388"
         transform="translate(41.09049,43.283043)">
        <path
           inkscape:connector-curvature="0"
           d="m 300.12989,429.59992 c 0.35893,-8.14223 0.47333,-16.29313 0.99011,-24.42899 0.22544,-3.54914 0.53492,-7.09245 0.80238,-10.63867 0.47719,-4.04659 0.87123,-8.10385 1.43157,-12.13977 1.20267,-8.66233 2.99609,-18.82292 4.77654,-27.35926 1.82132,-8.73223 4.38598,-19.4586 6.84698,-28.04049 1.27384,-4.44206 2.75543,-8.82189 4.13314,-13.23284 3.92651,-10.55898 4.81339,-13.82045 9.79634,-23.82377 3.56239,-7.15154 7.49521,-13.68815 11.95158,-20.30405 4.38328,-6.50739 6.49771,-8.97199 11.20063,-14.92301 1.47975,-1.75681 2.95951,-3.51362 4.43927,-5.27042 0,0 4.1071,-1.73793 4.1071,-1.73793 l 0,0 c -1.5619,1.78659 -3.1238,3.57317 -4.68569,5.35976 -4.89039,5.99571 -7.10097,8.47746 -11.62867,15.06226 -9.46304,13.76244 -16.77081,28.37855 -22.13859,44.20239 -1.40359,4.41736 -2.91913,8.80069 -4.21078,13.25207 -1.33546,4.60235 -2.53286,9.24496 -3.66812,13.90073 -3.31725,13.60429 -5.93115,27.39936 -7.65877,41.29764 -0.49653,3.99443 -0.81144,8.00934 -1.21716,12.014 -0.18705,3.50118 -0.43,6.99981 -0.56115,10.50352 -0.29689,7.93146 -0.18582,15.87585 0.211,23.80113 0,0 -4.91771,2.5057 -4.91771,2.5057 z"
           id="path4298"
           style="fill:#000000;fill-opacity:1;stroke:none;stroke-width:4;stroke-miterlimit:4;stroke-dasharray:none" />
        <g
           transform="translate(-10,12)"
           id="g4357">
          <path
             style="fill:#000000;fill-opacity:1;stroke:none;stroke-width:4;stroke-miterlimit:4;stroke-dasharray:none"
             id="path4332"
             d="m 302.40132,414.39885 c 0.3167,-6.54211 0.22079,-13.10295 0.68548,-19.63887 0.25317,-3.56087 0.56661,-7.11918 0.99513,-10.66323 0.50419,-4.16989 1.2014,-8.31418 1.80209,-12.47127 4.05536,-23.6594 10.21063,-46.92552 17.43307,-69.8039 1.27111,-4.02647 2.64926,-8.01835 3.97389,-12.02753 2.81215,-8.35352 5.92589,-16.59736 9.1255,-24.80796 0,0 4.0669,-1.87692 4.0669,-1.87692 l 0,0 c -3.55765,8.30029 -6.98726,16.65436 -9.9821,25.17866 -1.39055,4.03667 -2.84603,8.05155 -4.17165,12.11 -7.42979,22.74687 -13.42163,46.01024 -17.23169,69.64395 -0.51292,4.10572 -1.1427,8.19853 -1.53875,12.31716 -0.94662,9.84409 -0.75619,19.71385 -0.32224,29.57603 0,0 -4.83563,2.46388 -4.83563,2.46388 z"
             inkscape:connector-curvature="0" />
          <path
             style="fill:#000000;fill-opacity:1;stroke:none;stroke-width:4;stroke-miterlimit:4;stroke-dasharray:none"
             id="path4296"
             d="m 304.97818,418.48474 c 0.34895,-8.54391 0.41116,-17.09686 1.0317,-25.62974 0.22367,-3.07571 0.54186,-6.14381 0.81279,-9.21572 1.105,-8.25348 1.52897,-12.77066 3.40029,-21.00563 0.943,-4.1498 2.05559,-8.26122 3.23438,-12.3503 2.42187,-8.40128 5.59837,-17.82697 8.79899,-25.9501 1.82545,-4.63296 3.87612,-9.17399 5.81419,-13.76098 9.5363,-21.65136 20.50378,-42.64223 32.19075,-63.20152 0,0 4.01878,-1.78579 4.01878,-1.78579 l 0,0 c -3.72782,6.15868 -4.99551,8.15969 -8.73651,14.79236 -8.95773,15.88175 -17.24991,32.14622 -24.56165,48.85418 -1.89337,4.56037 -3.89182,9.07852 -5.68013,13.6811 -4.8024,12.35999 -8.86046,25.07532 -11.64486,38.0491 -1.85547,8.64549 -2.10416,12.21814 -3.15777,20.84167 -0.22524,3.04324 -0.50921,6.08271 -0.67572,9.12973 -0.45613,8.34656 -0.35808,16.7163 0.0409,25.06203 0,0 -4.88613,2.48961 -4.88613,2.48961 z"
             inkscape:connector-curvature="0" />
          <path
             style="fill:#000000;fill-opacity:1;stroke:none;stroke-width:4;stroke-miterlimit:4;stroke-dasharray:none"
             id="path4312"
             d="m 300.13621,416.39258 c 0.0937,-2.03324 0.086,-1.80715 0.18986,-4.54081 0.20313,-5.34661 0.22488,-7.0751 0.58363,-12.83357 0.48324,-7.75651 0.8524,-11.52023 1.52675,-19.4429 1.81654,-20.50061 4.99482,-40.86485 9.56093,-60.93319 0.95766,-4.20899 2.03503,-8.38984 3.05254,-12.58477 3.74819,-14.95028 8.204,-29.72538 13.69881,-44.13024 2.70975,-7.10372 3.8849,-9.6374 6.82282,-16.44335 2.62446,-5.76214 5.32466,-11.49154 8.17269,-17.14701 1.50824,-2.99497 2.48363,-4.97294 4.28534,-7.76079 0.67452,-1.04371 1.43499,-2.02928 2.15248,-3.04393 2.00905,-2.63102 4.39531,-4.89908 7.01368,-6.9045 0,0 4.92772,-1.95578 4.92772,-1.95578 l 0,0 c -2.75226,1.96642 -5.25624,4.22646 -7.37318,6.88179 -0.74606,1.01269 -1.53689,1.99388 -2.23818,3.03806 -1.82453,2.71661 -2.94957,4.88853 -4.48354,7.80871 -2.99851,5.70814 -5.83445,11.50045 -8.60939,17.3199 -3.20549,7.14532 -4.15485,9.05344 -7.11005,16.54931 -5.68591,14.42229 -10.30613,29.23782 -14.09231,44.26819 -1.02064,4.19264 -2.10427,8.37044 -3.06193,12.57792 -4.54753,19.97946 -7.63942,40.27144 -9.20513,60.70329 -0.81721,12.00224 -1.68976,24.04309 -0.90846,36.07441 0,0 -4.90508,2.49926 -4.90508,2.49926 z"
             inkscape:connector-curvature="0" />
          <path
             style="fill:#000000;fill-opacity:1;stroke:none;stroke-width:4;stroke-miterlimit:4;stroke-dasharray:none"
             id="path4314"
             d="m 301.62944,412.95486 c 0.20232,-5.3271 0.21406,-10.66567 0.6635,-15.98146 0.17234,-2.03846 0.42794,-4.06903 0.64191,-6.10354 1.86393,-14.51685 5.41876,-28.76223 9.57041,-42.77812 1.10228,-3.72125 2.29045,-7.41651 3.43567,-11.12477 6.98478,-21.64218 15.41657,-42.77411 24.32297,-63.68591 5.31865,-12.29045 10.82131,-24.50019 16.34655,-36.69882 2.03114,-4.41014 1.07753,-2.35302 2.85705,-6.17311 0,0 4.64568,-2.10769 4.64568,-2.10769 l 0,0 c -1.97795,3.8953 -0.92694,1.79921 -3.14294,6.29332 -5.83813,12.2478 -11.41257,24.61866 -16.99702,36.98359 -1.26941,2.87923 -2.56244,5.74815 -3.80824,8.63767 -7.78466,18.0558 -14.95089,36.39332 -20.85345,55.15715 -1.10504,3.68576 -2.25444,7.35851 -3.31512,11.05728 -3.98185,13.8855 -7.26054,28.0252 -8.93791,42.38729 -0.16997,2.00473 -0.38022,4.00646 -0.50992,6.0142 -0.33634,5.20622 -0.24298,10.42203 -0.0267,15.63009 0,0 -4.89246,2.49283 -4.89246,2.49283 z"
             inkscape:connector-curvature="0" />
          <path
             style="fill:#000000;fill-opacity:1;stroke:none;stroke-width:4;stroke-miterlimit:4;stroke-dasharray:none"
             id="path4316"
             d="m 300.12989,410.53704 c 0.11538,-3.96456 0.15814,-7.93148 0.224,-11.89723 0.28301,-11.45734 0.1189,-22.92803 0.65468,-34.37893 0.144,-3.07751 0.37288,-6.15045 0.55932,-9.22567 1.1285,-13.45131 2.93891,-26.85258 5.398,-40.12569 1.45834,-7.8715 2.53609,-12.57247 4.22077,-20.35139 3.78267,-16.66439 9.12879,-32.91064 14.48202,-49.12068 2.08464,-6.26364 4.33457,-12.4693 6.67075,-18.64277 0,0 4.57129,-2.11422 4.57129,-2.11422 l 0,0 c -2.61728,6.21911 -5.06931,12.50539 -7.26126,18.88868 -5.55194,16.23638 -10.92727,32.5653 -14.90347,49.27125 -1.93541,8.70234 -2.64282,11.51061 -4.26889,20.35432 -2.43226,13.22839 -4.19765,26.58751 -5.2394,39.99717 -0.16712,3.0608 -0.38244,6.11934 -0.50136,9.18239 -0.43977,11.32676 -0.0462,22.66005 0.0873,33.9881 0.0657,3.88966 0.1078,7.78057 0.22399,11.66897 0,0 -4.91771,2.5057 -4.91771,2.5057 z"
             inkscape:connector-curvature="0" />
          <path
             style="fill:#000000;fill-opacity:1;stroke:none;stroke-width:4;stroke-miterlimit:4;stroke-dasharray:none"
             id="path4326"
             d="m 303.79382,418.14991 c -1.03719,-10.33577 -1.00972,-20.74261 -1.14865,-31.11849 -0.0738,-19.89409 -0.51344,-39.81384 0.64977,-59.68796 0.26685,-4.55935 0.68417,-9.10866 1.02625,-13.66299 1.99537,-24.34773 7.47816,-48.19609 13.19642,-71.88612 0.63717,-2.56155 1.27434,-5.1231 1.91152,-7.68465 0,0 3.87998,-1.85255 3.87998,-1.85255 l 0,0 c -0.72438,2.60155 -1.44877,5.2031 -2.17315,7.80465 -2.15227,8.20625 -3.25452,12.18427 -5.21413,20.65851 -3.91916,16.9483 -6.9984,34.10516 -8.5651,51.4419 -0.33829,4.5479 -0.76285,9.0902 -1.01486,13.6437 -1.09365,19.76034 -0.36214,39.55685 0.0105,59.32542 0.35215,10.16081 0.48119,20.42266 2.28811,30.45518 0,0 -4.84661,2.5634 -4.84661,2.5634 z"
             inkscape:connector-curvature="0" />
          <path
             style="fill:#000000;fill-opacity:1;stroke:none;stroke-width:4;stroke-miterlimit:4;stroke-dasharray:none"
             id="path4328"
             d="m 301.24824,415.69519 c 0.25436,-4.78364 0.0142,-9.5793 -0.24818,-14.35644 -0.2999,-5.45941 -0.71982,-11.39959 -1.08575,-16.82606 -1.39995,-20.62374 -2.42766,-41.28866 -2.57585,-61.96348 -0.0331,-4.61398 0.0332,-9.22814 0.0499,-13.84221 0.41739,-22.0657 1.98284,-44.09594 4.40781,-66.02738 0.88394,-7.40894 0.44101,-3.95931 1.30527,-10.35189 0,0 4.36,-2.13587 4.36,-2.13587 l 0,0 c -1.18275,6.52226 -0.58377,3.00493 -1.7594,10.55831 -0.3537,2.54845 -0.73781,5.09287 -1.0611,7.64535 -2.46956,19.49782 -3.83529,39.1352 -4.24841,58.78201 -0.0134,4.60953 -0.0831,9.21925 -0.0403,13.82861 0.19074,20.56638 1.41038,41.12265 3.22226,61.60508 0.92636,10.18658 2.00134,20.36863 2.58521,30.58149 0,0 -4.9114,2.50248 -4.9114,2.50248 z"
             inkscape:connector-curvature="0" />
          <path
             style="fill:#000000;fill-opacity:1;stroke:none;stroke-width:4;stroke-miterlimit:4;stroke-dasharray:none"
             id="path4336"
             d="m 301.25456,422.2942 c -0.0135,-0.55891 -0.005,-1.11875 -0.0406,-1.67671 -0.2143,-3.40318 -0.57492,-6.7959 -0.80306,-10.19817 -0.21079,-3.14367 -0.40562,-6.28861 -0.56315,-9.4354 -0.51122,-10.21194 -0.64682,-16.19308 -0.97675,-26.64635 -0.68882,-26.03738 -0.9335,-52.14973 1.48421,-78.11396 0.41386,-4.44463 1.00715,-8.87072 1.51073,-13.30608 1.39062,-10.06066 3.11219,-20.07559 5.23181,-30.00851 0.44157,-2.06927 0.93755,-4.12656 1.40632,-6.18983 0,0 4.10286,-1.96672 4.10286,-1.96672 l 0,0 c -0.56176,2.10357 -1.16039,4.19765 -1.68529,6.31073 -2.48556,10.00599 -4.44563,20.13724 -5.97772,30.33218 -0.56713,4.46183 -1.2367,8.91184 -1.70138,13.3855 -2.69235,25.9205 -2.49972,52.04526 -1.44467,78.04973 0.58816,11.02629 0.72523,15.61477 1.67464,26.2686 0.53409,5.99324 1.00176,9.76337 1.8538,15.4521 0.18102,1.20861 0.41049,2.40954 0.60076,3.61673 0.0854,0.54189 0.15082,1.08674 0.22622,1.63011 0,0 -4.89876,2.49605 -4.89876,2.49605 z"
             inkscape:connector-curvature="0" />
          <path
             style="fill:#000000;fill-opacity:1;stroke:none;stroke-width:4;stroke-miterlimit:4;stroke-dasharray:none"
             id="path4338"
             d="m 297.93108,425.68899 c 0.33637,-10.15074 0.43251,-20.30844 0.56335,-30.46346 0.10565,-3.80999 0.18639,-7.62075 0.31694,-11.42996 0.14889,-4.34408 0.2529,-8.69113 0.52134,-13.02947 1.02295,-16.53232 3.04637,-33.01137 5.78781,-49.34347 0.94483,-5.62879 2.08073,-11.22382 3.12109,-16.83573 3.75855,-18.37719 8.13216,-36.62651 13.14336,-54.70142 0,0 4.07677,-1.92971 4.07677,-1.92971 l 0,0 c -0.69579,2.1595 -1.42057,4.30987 -2.08736,6.47849 -4.94881,16.09501 -9.05818,32.44243 -12.57321,48.90732 -2.70386,14.43882 -3.84363,19.33981 -5.68602,33.95489 -2.34205,18.57858 -3.25299,37.31125 -2.89285,56.02961 0.13008,9.96365 0.22356,19.9302 0.56335,29.88938 0,0 -4.85457,2.47353 -4.85457,2.47353 z"
             inkscape:connector-curvature="0" />
          <path
             style="fill:#000000;fill-opacity:1;stroke:none;stroke-width:4;stroke-miterlimit:4;stroke-dasharray:none"
             id="path4340"
             d="m 293.83573,426.89633 c 0.41553,-9.76691 0.36467,-19.5458 1.20345,-29.29417 0.34424,-4.00079 0.83936,-7.98716 1.25903,-11.98074 2.52927,-20.25825 7.22423,-40.20677 13.55861,-59.60678 3.9873,-12.21171 6.0843,-16.89064 10.79948,-28.62717 6.79902,-15.60405 14.28609,-30.95924 23.27147,-45.43202 0.50559,-0.74627 1.01117,-1.49255 1.51675,-2.23882 0,0 4.70829,-2.04348 4.70829,-2.04348 l 0,0 c -0.56834,0.7658 -1.13668,1.53159 -1.70502,2.29738 -0.76547,1.13705 -1.5518,2.26033 -2.2964,3.41115 -8.74958,13.52301 -15.9985,27.97449 -22.57354,42.65668 -4.97695,12.08667 -6.86968,16.07245 -11.00756,28.6916 -6.31258,19.25129 -10.8521,39.09626 -12.98474,59.25466 -0.31708,3.93599 -0.71362,7.86637 -0.95125,11.80795 -0.57481,9.53462 -0.34285,19.08909 0.0686,28.6238 0,0 -4.86719,2.47996 -4.86719,2.47996 z"
             inkscape:connector-curvature="0" />
        </g>
      </g>
      <path
         style="fill:#000000;fill-opacity:1;stroke:none;stroke-width:4;stroke-miterlimit:4;stroke-dasharray:none"
         id="path4422"
         d="m 316.37283,469.02126 c 1.70394,-14.95275 3.46847,-29.90116 4.94236,-44.87951 0.54382,-5.52658 1.03248,-11.05845 1.54872,-16.58767 1.51072,-21.5218 4.02117,-43.12042 2.81316,-64.73138 -0.61883,-11.07085 -1.32629,-13.23818 -3.23329,-23.73408 -2.2855,-8.22005 -2.39259,-9.62101 -5.519,-17.2139 -0.90206,-2.19075 -1.98443,-4.30285 -2.97665,-6.45427 0,0 4.0677,-2.29151 4.0677,-2.29151 l 0,0 c 0.93782,2.19479 1.96238,4.35451 2.81346,6.58437 2.98875,7.83058 3.01577,9.03504 5.16228,17.49143 1.69673,10.62017 2.35575,12.86048 2.80308,24.02465 0.42138,10.5166 -0.0543,19.98878 -0.66396,30.51822 -0.34742,6.00076 -2.00622,28.47819 -2.43693,34.39502 -0.43071,5.48752 -0.85054,10.97591 -1.29215,16.46256 -1.09319,13.58213 -2.34002,27.16799 -2.88243,40.78809 -0.0403,1.01135 -0.0394,2.02392 -0.0591,3.03587 0,0 -5.08729,2.59211 -5.08729,2.59211 z"
         inkscape:connector-curvature="0" />
      <path
         style="fill:#000000;fill-opacity:1;stroke:none;stroke-width:4;stroke-miterlimit:4;stroke-dasharray:none"
         id="path4428"
         d="m 316.48379,471.66281 c 0.13115,-0.95311 0.24743,-1.90837 0.39346,-2.85931 0.89872,-5.85224 1.90973,-11.68677 2.82676,-17.53617 2.91358,-18.58458 2.29647,-15.3118 5.37363,-35.61868 1.17087,-7.72685 2.37693,-15.44833 3.5654,-23.17249 5.08421,-32.30491 10.00709,-64.64351 13.54857,-97.1602 0.70622,-6.48428 1.38916,-12.97225 1.93271,-19.47218 0.46164,-5.52042 0.72161,-11.05586 1.08241,-16.58379 0,0 2.80635,-1.40273 2.80635,-1.40273 l 0,0 c -0.49973,5.60052 -0.90997,11.20974 -1.49918,16.80155 -0.69228,6.57003 -1.52749,13.12437 -2.34488,19.68001 -4.04896,32.47365 -9.00554,64.82153 -13.64665,97.21339 -3.01365,22.46796 -2.94253,21.19423 -5.44102,42.4621 -0.6052,5.15163 -1.18085,10.30673 -1.74571,15.46294 -0.60909,5.56009 -1.23657,11.32696 -1.66136,16.93925 -0.0688,0.90871 -0.0933,1.82022 -0.13994,2.73033 0,0 -5.05055,2.51598 -5.05055,2.51598 z"
         inkscape:connector-curvature="0" />
      <path
         style="fill:#000000;fill-opacity:1;stroke:none;stroke-width:4;stroke-miterlimit:4;stroke-dasharray:none"
         id="path4430"
         d="m 320.29905,469.7539 c 1.22967,-20.50906 3.04064,-40.97729 4.43328,-61.47497 0.51559,-7.58883 0.96184,-15.18221 1.44275,-22.77331 1.46976,-28.18834 1.42691,-56.60722 -2.87575,-84.57041 -1.88707,-12.26417 -3.00449,-15.50874 -5.96772,-26.95174 0,0 3.35238,-1.80938 3.35238,-1.80938 l 0,0 c 2.61206,11.65356 3.60907,14.97043 5.21632,27.39914 3.64056,28.15216 3.39719,56.64548 2.23111,84.94867 -0.32446,7.51345 -0.61377,15.0285 -0.97338,22.54035 -0.95896,20.03137 -2.45099,40.08882 -1.88345,60.15648 0,0 -4.97554,2.53517 -4.97554,2.53517 z"
         inkscape:connector-curvature="0" />
    </g>
    <g
       inkscape:groupmode="layer"
       id="layer6"
       inkscape:label="S"
       style="display:inline">
      <path
         style="display:inline;fill:#000000;fill-opacity:1;stroke:none;stroke-width:0.1;stroke-miterlimit:4;stroke-dasharray:none"
         id="path4491"
         d="m 311.5658,489.92906 c 5.92179,-8.08448 13.68718,-15.6146 21.09593,-23.2065 11.26451,-11.21291 22.1871,-22.62482 30.73534,-34.73036 1.52626,-2.16138 2.86818,-4.36992 4.30225,-6.55488 2.11977,-3.88905 4.54587,-7.79116 5.644,-11.86353 1.06468,-3.94826 1.06912,-7.56621 -0.14244,-11.50624 -1.59451,-5.18533 -3.56669,-7.15688 -7.04516,-12.02399 -2.08246,-2.12092 -3.98504,-4.31222 -6.24744,-6.36275 -4.80737,-4.35722 -11.59404,-9.27027 -17.14607,-13.22389 -9.99054,-7.11427 -20.33525,-14.04949 -30.47558,-21.08365 -9.14233,-6.64206 -18.01731,-13.49669 -25.11964,-21.04557 -3.16394,-3.36283 -8.35668,-9.45553 -9.21052,-13.4604 -0.57685,-2.70557 0.27805,-5.45452 0.41712,-8.18178 1.28059,-2.96457 2.07566,-6.02442 3.84189,-8.89371 3.96507,-6.44138 10.98622,-13.51935 17.39563,-19.10118 7.3256,-6.37967 14.04022,-11.15632 23.27262,-16.50592 3.95522,-2.29181 8.27457,-4.33537 12.41184,-6.50306 13.08883,-5.98175 27.30826,-11.01024 42.33663,-14.9192 7.51,-1.95338 10.68394,-2.5024 18.11395,-4.0047 0,0 -6.66457,3.1689 -6.66457,3.1689 l 0,0 c -2.64116,0.51961 -5.309,0.99085 -7.92351,1.55887 -8.18085,1.77731 -12.72811,2.99645 -20.72905,5.36722 -1.95752,0.58004 -3.91992,1.16681 -5.75645,1.88017 -4.33275,1.6829 -8.48618,3.53331 -12.72925,5.29997 -4.20389,2.1692 -8.59306,4.21029 -12.6117,6.50761 -9.23931,5.28184 -16.11725,10.11582 -23.41849,16.45038 -6.49554,5.63553 -13.07617,12.31783 -17.00391,18.84103 -1.69711,2.81856 -2.45187,5.81779 -3.67778,8.72669 -0.1062,2.65572 -0.88189,5.33319 -0.31873,7.96721 0.85805,4.01336 5.77955,10.02927 8.887,13.43464 6.91851,7.58187 15.65854,14.46463 24.77749,21.08334 3.36427,2.3447 6.70822,4.70044 10.09282,7.03413 2.09287,1.44305 18.33265,12.48777 20.51412,14.01103 5.78079,4.03655 12.46861,8.74209 17.50931,13.17636 2.32951,2.04924 4.311,4.23913 6.46649,6.35869 3.63491,4.89838 5.67015,6.85256 7.36489,12.09859 1.28096,3.96507 1.33406,7.68797 0.24737,11.66995 -1.09888,4.02668 -3.72714,8.17902 -5.86548,12.0043 -1.46962,2.20356 -2.85198,4.42976 -4.40887,6.6107 -8.61393,12.06689 -19.48467,23.47224 -30.56058,34.73513 -7.03496,7.38098 -14.49508,14.70809 -19.65601,22.67765 0,0 -8.71546,2.50875 -8.71546,2.50875 z"
         inkscape:connector-curvature="0" />
    </g>
    <g
       inkscape:groupmode="layer"
       id="layer2"
       inkscape:label="Bottle"
       style="display:inline">
      <g
         style="display:inline"
         id="g4188"
         transform="translate(4.8047763,-361.28839)">
        <path
           transform="scale(1,-1)"
           style="fill:#2299cc;fill-opacity:1;stroke:none;stroke-width:1.02600002;stroke-miterlimit:4;stroke-dasharray:none"
           d="m 271.37866,-860.53115 44.80397,12.63884 c 5.8439,1.64852 10.96023,0.42749 10.96023,6.49946 l 0,92.82745 c 0,6.07197 -4.88826,10.96024 -10.96023,10.96024 l -44.80397,0 c -6.07197,0 -10.96023,-4.88827 -10.96023,-10.96024 l 0,-103.97937 c 0,-6.07197 5.11633,-9.6349 10.96023,-7.98638 z"
           id="rect4148"
           inkscape:connector-curvature="0"
           sodipodi:nodetypes="sssssssss" />
        <path
           transform="scale(1,-1)"
           style="fill:#2299cc;fill-opacity:1;stroke:none;stroke-width:1.02600002;stroke-miterlimit:4;stroke-dasharray:none"
           d="m 290.41843,-827.79071 6.72443,0 c 16.62,0 30,13.38 30,30 l 0,65.89984 c 0,16.62 -13.38,30 -30,30 l -6.72443,0 c -16.62,0 -30,-13.38 -30,-30 l 0,-65.89984 c 0,-16.62 13.38,-30 30,-30 z"
           id="rect4184"
           inkscape:connector-curvature="0" />
        <path
           transform="scale(1,-1)"
           style="fill:#2299cc;fill-opacity:1;stroke:none;stroke-width:1.02600002;stroke-miterlimit:4;stroke-dasharray:none"
           d="m 285.2756,-766.36218 17.01009,0 c 1.108,0 2,0.892 2,2 l 0,100.47131 c 0,1.108 -0.892,2 -2,2 l -17.01009,0 c -1.108,0 -2,-0.892 -2,-2 l 0,-100.47131 c 0,-1.108 0.892,-2 2,-2 z"
           id="rect4186"
           inkscape:connector-curvature="0" />
      </g>
    </g>
    <path
       style="color:#000000;font-style:normal;font-variant:normal;font-weight:normal;font-stretch:normal;font-size:medium;line-height:normal;font-family:sans-serif;text-indent:0;text-align:start;text-decoration:none;text-decoration-line:none;text-decoration-style:solid;text-decoration-color:#000000;letter-spacing:normal;word-spacing:normal;text-transform:none;direction:ltr;block-progression:tb;writing-mode:lr-tb;baseline-shift:baseline;text-anchor:start;white-space:normal;clip-rule:nonzero;display:inline;overflow:visible;visibility:visible;opacity:1;isolation:auto;mix-blend-mode:normal;color-interpolation:sRGB;color-interpolation-filters:linearRGB;solid-color:#000000;solid-opacity:1;fill:#000000;fill-opacity:1;fill-rule:evenodd;stroke:none;stroke-width:8;stroke-linecap:butt;stroke-linejoin:miter;stroke-miterlimit:4;stroke-dasharray:none;stroke-dashoffset:0;stroke-opacity:1;color-rendering:auto;image-rendering:auto;shape-rendering:auto;text-rendering:auto;enable-background:accumulate"
       d="m 263.37695,222.2168 c -77.11468,0 -139.71484,62.60015 -139.71484,139.71484 0,77.11469 62.60016,139.71289 139.71484,139.71289 77.11469,0 139.71289,-62.5982 139.71289,-139.71289 0,-77.11469 -62.5982,-139.71484 -139.71289,-139.71484 z m 0,8 c 72.79117,0 131.71289,58.92367 131.71289,131.71484 0,72.79117 -58.92172,131.71289 -131.71289,131.71289 -72.79116,0 -131.71484,-58.92172 -131.71484,-131.71289 0,-72.79117 58.92368,-131.71484 131.71484,-131.71484 z"
       id="circle4182"
       inkscape:connector-curvature="0" />
  </g>
</svg>
